<svg xmlns="http://www.w3.org/2000/svg" xmlns:xlink="http://www.w3.org/1999/xlink" width="500" zoomAndPan="magnify" viewBox="0 0 375 374.999991" height="500" preserveAspectRatio="xMidYMid meet" version="1.0"><defs><g/></defs><rect x="-37.5" width="450" fill="#ffffff" y="-37.499999" height="449.999989" fill-opacity="1"/><rect x="-37.5" width="450" fill="#ffffff" y="-37.499999" height="449.999989" fill-opacity="1"/><g fill="#2662d9" fill-opacity="1"><g transform="translate(52.608491, 242.88313)"><g><path d="M 29.703125 0 L 3.75 0 L 43.296875 -114.5625 L 74.5 -114.5625 L 114 0 L 88.046875 0 L 79.546875 -26.125 L 38.203125 -26.125 Z M 44.359375 -45.03125 L 73.4375 -45.03125 L 59.34375 -88.375 L 58.453125 -88.375 Z M 44.359375 -45.03125 "/></g></g></g><g fill="#2662d9" fill-opacity="1"><g transform="translate(170.393765, 242.88313)"><g><path d="M 8.71875 0 L 8.71875 -14.375 L 65.890625 -94.59375 L 8.609375 -94.59375 L 8.609375 -114.5625 L 96.328125 -114.5625 L 96.328125 -100.1875 L 39.09375 -19.96875 L 96.4375 -19.96875 L 96.4375 0 Z M 8.71875 0 "/></g></g></g><g fill="#2662d9" fill-opacity="1"><g transform="translate(275.427352, 242.88313)"><g><path d="M 23.4375 1.453125 C 19.75 1.453125 16.578125 0.148438 13.921875 -2.453125 C 11.273438 -5.066406 9.972656 -8.238281 10.015625 -11.96875 C 9.972656 -15.625 11.273438 -18.753906 13.921875 -21.359375 C 16.578125 -23.972656 19.75 -25.28125 23.4375 -25.28125 C 27.019531 -25.28125 30.144531 -23.972656 32.8125 -21.359375 C 35.476562 -18.753906 36.828125 -15.625 36.859375 -11.96875 C 36.828125 -8.238281 35.476562 -5.066406 32.8125 -2.453125 C 30.144531 0.148438 27.019531 1.453125 23.4375 1.453125 Z M 23.4375 1.453125 "/></g></g></g></svg>